# xmcd
#
# Track frame offsets:
#	150
#	12967
#	29993
#	48781
#	63099
#	73705
#	89073
#	104880
#	120654
#	135921
#	149839
#	168140
#	179653
#	195052
#	207722
#	229889
#	242620
#	263079
#	276838
#	288688
#
# Disc length: 4003 seconds
#
# Revision: 339158152
# Processed by: cddbd v1.5.2PL0 Copyright (c) Steve Scherf et al.
# Submitted via: EZCDAudioConverter 9.1.1.1
#
DISCID=380fa114
DTITLE=100 Hits - 100 Hits - Country - CD 2
DYEAR=2007
DGENRE=Country
TTITLE0=Lynn Anderson - Rose Garden
TTITLE1=Johnny Cash - (Ghost) Riders In The Sky
TTITLE2=Kris Kristofferson - Me And Bobby McGee
TTITLE3=John Denver - Take Me Home, Country Roads
TTITLE4=The Everly Brothers - I'm On My Way Home Again
TTITLE5=Rodney Crowell - Leaving Louisiana In The Broad Daylight
TTITLE6=Maria Muldaur - My Tennessee Mountain Home
TTITLE7=Carlene Carter - Do It In A Heartbeat
TTITLE8=George Jones - Real Deal
TTITLE9=The Forester Sisters - (That's What You Do) When You're In Love
TTITLE10=Willie Nelson - Whiskey River
TTITLE11=Crystal Gayle - Don't It Make My Brown Eyes Blues
TTITLE12=Hoyt Axton - Della And The Dealer
TTITLE13=John Michael Montgomery - Be My Baby Tonight
TTITLE14=Beth Nielsen Chapman - Beyond The Blue
TTITLE15=Charley Pride - Crystal Chandeliers
TTITLE16=Guy Clark - Desperados Waiting For A Train
TTITLE17=Alabama - Tennessee River
TTITLE18=Carlene Carter - My Dixie Darlin'
TTITLE19=Stella Parton - The Danger Of A Stranger
EXTD=
EXTT0=
EXTT1=
EXTT2=
EXTT3=
EXTT4=
EXTT5=
EXTT6=
EXTT7=
EXTT8=
EXTT9=
EXTT10=
EXTT11=
EXTT12=
EXTT13=
EXTT14=
EXTT15=
EXTT16=
EXTT17=
EXTT18=
EXTT19=
PLAYORDER=
